<svg xmlns="http://www.w3.org/2000/svg" xmlns:xlink="http://www.w3.org/1999/xlink" width="500" zoomAndPan="magnify" viewBox="0 0 375 374.999991" height="500" preserveAspectRatio="xMidYMid meet" version="1.0"><defs><g/><clipPath id="584d3a6dee"><path d="M 133 79 L 284 79 L 284 316.347656 L 133 316.347656 Z M 133 79 " clip-rule="nonzero"/></clipPath><clipPath id="cab9d6c1d2"><path d="M 19.003906 0 L 208.003906 0 L 208.003906 375 L 19.003906 375 Z M 19.003906 0 " clip-rule="nonzero"/></clipPath><clipPath id="24ce48ad5e"><path d="M 250 115 L 301 115 L 301 177 L 250 177 Z M 250 115 " clip-rule="nonzero"/></clipPath><clipPath id="825dcc4600"><path d="M 238.960938 125.398438 L 301.222656 111.699219 L 312.503906 162.972656 L 250.242188 176.671875 Z M 238.960938 125.398438 " clip-rule="nonzero"/></clipPath><clipPath id="442ce60f43"><path d="M 238.960938 125.398438 L 301.222656 111.699219 L 312.503906 162.972656 L 250.242188 176.671875 Z M 238.960938 125.398438 " clip-rule="nonzero"/></clipPath><clipPath id="c8bffce47c"><path d="M 253 118 L 298 118 L 298 173 L 253 173 Z M 253 118 " clip-rule="nonzero"/></clipPath><clipPath id="a7c607d27f"><path d="M 243.855469 127.917969 L 297.324219 116.152344 L 307.15625 160.832031 L 253.6875 172.597656 Z M 243.855469 127.917969 " clip-rule="nonzero"/></clipPath><clipPath id="f9fef49236"><path d="M 243.855469 127.917969 L 297.324219 116.152344 L 307.15625 160.832031 L 253.6875 172.597656 Z M 243.855469 127.917969 " clip-rule="nonzero"/></clipPath></defs><rect x="-37.5" width="450" fill="#ffffff" y="-37.499999" height="449.999989" fill-opacity="1"/><rect x="-37.5" width="450" fill="#5e17eb" y="-37.499999" height="449.999989" fill-opacity="1"/><path fill="#905bdf" d="M 160.863281 110.511719 L 156.292969 105.238281 C 156.292969 105.238281 148.695312 119.511719 142.679688 121.269531 C 141.363281 121.65625 139.953125 121.632812 138.578125 121.664062 C 134.613281 121.757812 133.042969 118.132812 129.886719 116.4375 C 127.101562 114.941406 124.300781 112.109375 121.449219 111.058594 C 115.777344 108.96875 112.113281 110.257812 106.503906 109.21875 C 98.054688 107.65625 93.757812 111.648438 90.574219 116.71875 C 89.480469 118.453125 85.582031 125.253906 91.828125 132.558594 C 96.457031 137.972656 101.683594 138.472656 106.320312 142.753906 C 110.96875 147.039062 123.546875 142.828125 125.875 141.644531 C 131.375 138.851562 133.050781 133.976562 136.433594 130.003906 C 138.144531 128.003906 139.410156 126.351562 141.992188 125.488281 C 144.988281 124.484375 149.066406 120.191406 152.074219 118.976562 C 158.304688 116.457031 160.863281 110.511719 160.863281 110.511719 Z M 160.863281 110.511719 " fill-opacity="1" fill-rule="evenodd"/><path fill="#cb6ce6" d="M 161.527344 110.664062 L 155.964844 105.238281 C 155.964844 105.238281 148.597656 119.367188 142.582031 121.128906 C 141.265625 121.511719 139.921875 122.253906 138.546875 122.285156 C 134.582031 122.378906 132.601562 119.492188 129.445312 117.800781 C 126.660156 116.304688 123.9375 113.699219 121.085938 112.648438 C 115.417969 110.5625 111.988281 111.761719 106.375 110.726562 C 97.929688 109.164062 95.042969 112.238281 91.855469 117.308594 C 90.765625 119.042969 86.941406 124.644531 93.183594 131.945312 C 97.816406 137.363281 102.53125 137.382812 107.171875 141.660156 C 111.816406 145.949219 122.289062 141.632812 124.617188 140.453125 C 130.113281 137.660156 132.359375 132.96875 135.742188 129.003906 C 137.453125 127 139.3125 125.800781 141.894531 124.9375 C 143.003906 124.566406 144.625 124.253906 145.921875 123.304688 C 148.128906 121.6875 150.222656 119.957031 152.117188 119.191406 C 158.347656 116.671875 161.527344 110.664062 161.527344 110.664062 Z M 161.527344 110.664062 " fill-opacity="1" fill-rule="evenodd"/><path fill="#905bdf" d="M 255.15625 110.507812 L 259.726562 105.238281 C 259.726562 105.238281 267.324219 119.507812 273.339844 121.265625 C 274.660156 121.652344 276.070312 121.628906 277.441406 121.660156 C 281.410156 121.753906 282.980469 118.128906 286.132812 116.433594 C 288.917969 114.941406 291.722656 112.105469 294.574219 111.058594 C 300.242188 108.96875 303.90625 110.253906 309.515625 109.214844 C 317.964844 107.652344 322.261719 111.644531 325.449219 116.714844 C 326.539062 118.453125 330.4375 125.253906 324.195312 132.554688 C 319.5625 137.972656 314.339844 138.472656 309.699219 142.75 C 305.050781 147.035156 292.472656 142.824219 290.144531 141.644531 C 284.648438 138.851562 282.972656 133.972656 279.585938 130.003906 C 277.878906 128 276.609375 126.351562 274.03125 125.484375 C 271.03125 124.480469 266.957031 120.1875 263.945312 118.972656 C 257.714844 116.457031 255.15625 110.507812 255.15625 110.507812 Z M 255.15625 110.507812 " fill-opacity="1" fill-rule="evenodd"/><path fill="#cb6ce6" d="M 254.496094 110.660156 L 260.054688 105.238281 C 260.054688 105.238281 267.421875 119.367188 273.4375 121.125 C 274.757812 121.511719 276.101562 122.25 277.472656 122.28125 C 281.441406 122.375 283.417969 119.492188 286.574219 117.796875 C 289.359375 116.304688 292.082031 113.699219 294.933594 112.648438 C 300.605469 110.558594 304.03125 111.761719 309.644531 110.722656 C 318.09375 109.160156 320.976562 112.238281 324.164062 117.304688 C 325.253906 119.039062 329.078125 124.640625 322.835938 131.941406 C 318.203125 137.359375 313.488281 137.378906 308.851562 141.65625 C 304.203125 145.945312 293.734375 141.632812 291.40625 140.449219 C 285.90625 137.65625 283.660156 132.96875 280.277344 129 C 278.570312 126.996094 276.707031 125.796875 274.125 124.933594 C 273.015625 124.5625 271.394531 124.25 270.101562 123.300781 C 267.894531 121.683594 265.800781 119.953125 263.902344 119.1875 C 257.671875 116.671875 254.496094 110.660156 254.496094 110.660156 Z M 254.496094 110.660156 " fill-opacity="1" fill-rule="evenodd"/><g clip-path="url(#584d3a6dee)"><path fill="#cb6ce6" d="M 208.011719 311.460938 C 208.640625 313.3125 210.746094 316.628906 212.851562 316.5 C 219.457031 316.109375 224.671875 305.265625 225.515625 296.195312 C 226.890625 281.371094 229.277344 258.484375 232.003906 237.046875 C 233.535156 225.023438 235.953125 222.894531 237.695312 212.808594 C 239.617188 201.671875 237.972656 184.398438 239.320312 176.820312 C 240.503906 170.144531 244.914062 162.230469 246.867188 158.285156 C 253.882812 144.089844 255.835938 131.902344 261.308594 120.871094 C 270.253906 102.832031 286.484375 94.003906 282.351562 88.65625 C 280.164062 85.820312 268.078125 98.21875 252.550781 90.429688 C 231.078125 79.664062 216.890625 78.984375 208.011719 79.023438 C 198.636719 79.066406 184.945312 79.664062 163.472656 90.429688 C 147.945312 98.21875 135.859375 85.820312 133.671875 88.65625 C 129.539062 94.003906 145.769531 102.832031 154.714844 120.871094 C 160.1875 131.902344 162.140625 144.089844 169.15625 158.285156 C 171.109375 162.230469 175.519531 170.144531 176.703125 176.820312 C 178.050781 184.398438 176.40625 201.671875 178.328125 212.808594 C 180.070312 222.894531 182.488281 225.023438 184.019531 237.046875 C 186.746094 258.484375 189.132812 281.371094 190.507812 296.195312 C 191.347656 305.265625 196.566406 316.109375 203.171875 316.5 C 205.277344 316.628906 207.382812 313.3125 208.011719 311.460938 Z M 208.011719 311.460938 " fill-opacity="1" fill-rule="evenodd"/></g><path fill="#cb6ce6" d="M 208.011719 233.4375 C 208.011719 233.4375 220.871094 220.535156 220.308594 205.433594 C 220.066406 198.910156 218.40625 191.398438 217.601562 184.902344 C 215.484375 167.707031 224.050781 153.6875 229.714844 145.804688 C 244.0625 125.855469 260.292969 117.960938 286.394531 94.460938 C 300.402344 81.851562 311.289062 73.363281 325.535156 73.195312 C 338.117188 73.042969 345.25 90.027344 336.179688 103.832031 C 332.238281 109.828125 318.160156 107.101562 319.8125 108.660156 C 320.246094 109.070312 325.671875 110.382812 325.671875 110.382812 C 325.671875 110.382812 321.546875 110.894531 321.800781 111.339844 C 322.1875 112.027344 326.839844 112.039062 326.839844 112.039062 C 326.839844 112.039062 324.554688 113.617188 324.832031 113.996094 C 325.199219 114.503906 328.089844 113.957031 328.089844 113.957031 C 328.089844 113.957031 325.367188 116.574219 325.75 116.734375 C 326.132812 116.894531 329.683594 116.195312 329.683594 116.195312 C 329.683594 116.195312 327.582031 118.308594 327.800781 118.742188 C 328.023438 119.179688 330.207031 119.003906 330.207031 119.003906 C 330.207031 119.003906 327.484375 121.179688 327.605469 121.636719 C 327.734375 122.136719 330.296875 121.902344 330.296875 121.902344 C 330.296875 121.902344 328.335938 124.558594 328.460938 125.039062 C 328.574219 125.480469 330.777344 124.988281 330.777344 124.988281 C 330.777344 124.988281 327.042969 131.65625 328.632812 130.261719 C 330.226562 128.867188 332.976562 122.910156 344.136719 112.082031 C 356.25 100.332031 354.300781 77.132812 342.667969 67.210938 C 334.066406 59.867188 320.109375 58.375 305.242188 65.175781 C 291.863281 71.296875 276.792969 85.0625 263.527344 92.609375 C 253.519531 98.304688 230.765625 101.152344 208.011719 101.152344 C 185.257812 101.152344 162.503906 98.304688 152.496094 92.609375 C 139.230469 85.0625 124.160156 71.296875 110.777344 65.175781 C 95.914062 58.375 81.957031 59.867188 73.355469 67.210938 C 61.722656 77.132812 59.773438 100.332031 71.886719 112.082031 C 83.046875 122.910156 85.796875 128.867188 87.386719 130.261719 C 88.980469 131.65625 85.246094 124.988281 85.246094 124.988281 C 85.246094 124.988281 87.449219 125.480469 87.5625 125.039062 C 87.6875 124.558594 85.726562 121.902344 85.726562 121.902344 C 85.726562 121.902344 88.289062 122.136719 88.417969 121.636719 C 88.539062 121.179688 85.816406 119.003906 85.816406 119.003906 C 85.816406 119.003906 88 119.179688 88.222656 118.742188 C 88.441406 118.308594 86.339844 116.195312 86.339844 116.195312 C 86.339844 116.195312 89.890625 116.894531 90.273438 116.734375 C 90.65625 116.574219 87.933594 113.957031 87.933594 113.957031 C 87.933594 113.957031 90.824219 114.503906 91.191406 113.996094 C 91.46875 113.617188 89.183594 112.039062 89.183594 112.039062 C 89.183594 112.039062 93.835938 112.027344 94.222656 111.339844 C 94.476562 110.894531 90.351562 110.382812 90.351562 110.382812 C 90.351562 110.382812 95.777344 109.070312 96.210938 108.660156 C 97.863281 107.101562 83.785156 109.828125 79.84375 103.832031 C 70.773438 90.027344 77.90625 73.042969 90.488281 73.195312 C 104.734375 73.363281 115.621094 81.851562 129.628906 94.460938 C 155.730469 117.960938 171.832031 125.007812 186.171875 144.957031 C 191.839844 152.835938 200.375 167.375 198.253906 184.566406 C 197.457031 191.066406 196.300781 198.113281 196.058594 204.636719 C 195.496094 219.738281 208.011719 233.4375 208.011719 233.4375 Z M 208.011719 233.4375 " fill-opacity="1" fill-rule="evenodd"/><path fill="#905bdf" d="M 208.011719 315.703125 C 213.285156 315.703125 222.839844 312.949219 223.832031 288.8125 C 224.542969 271.507812 226.140625 253.675781 226.984375 238.53125 C 227.351562 231.90625 231.722656 216.304688 231.335938 214.589844 C 230.753906 211.996094 215.058594 232.269531 210.375 229.4375 C 208.332031 228.203125 215.296875 220.199219 214.738281 205.097656 C 214.492188 198.574219 213.671875 191.230469 212.871094 184.734375 C 210.753906 167.542969 219.554688 150.640625 225.222656 142.761719 C 239.5625 122.8125 259.304688 116.78125 285.410156 93.28125 C 299.417969 80.667969 312.03125 71.089844 326.929688 71.894531 C 339.492188 72.570312 346.835938 90.332031 336.714844 104.375 C 332.519531 110.195312 318.160156 107.101562 319.8125 108.660156 C 320.246094 109.070312 325.671875 110.382812 325.671875 110.382812 C 325.671875 110.382812 321.546875 110.894531 321.800781 111.339844 C 322.1875 112.027344 326.839844 112.039062 326.839844 112.039062 C 326.839844 112.039062 324.554688 113.617188 324.832031 113.996094 C 325.199219 114.503906 328.089844 113.957031 328.089844 113.957031 C 328.089844 113.957031 325.367188 116.574219 325.75 116.734375 C 326.132812 116.894531 329.683594 116.195312 329.683594 116.195312 C 329.683594 116.195312 327.582031 118.308594 327.800781 118.742188 C 328.023438 119.179688 330.207031 119.003906 330.207031 119.003906 C 330.207031 119.003906 327.484375 121.179688 327.605469 121.636719 C 327.734375 122.136719 330.296875 121.902344 330.296875 121.902344 C 330.296875 121.902344 328.335938 124.558594 328.460938 125.039062 C 328.574219 125.480469 330.777344 124.988281 330.777344 124.988281 C 330.777344 124.988281 327.042969 131.65625 328.632812 130.261719 C 330.226562 128.867188 332.0625 122.605469 343.222656 111.78125 C 355.335938 100.027344 353.542969 78.25 341.914062 68.328125 C 333.308594 60.988281 320.46875 60.164062 305.605469 66.960938 C 292.226562 73.082031 276.984375 86.910156 263.625 94.292969 C 243.613281 105.351562 208.011719 104.460938 208.011719 104.460938 C 208.011719 104.460938 172.410156 105.351562 152.398438 94.292969 C 139.039062 86.910156 123.800781 73.082031 110.417969 66.960938 C 95.554688 60.164062 82.714844 60.988281 74.109375 68.328125 C 62.480469 78.25 60.6875 100.027344 72.800781 111.78125 C 83.960938 122.605469 85.796875 128.867188 87.386719 130.261719 C 88.980469 131.65625 85.246094 124.988281 85.246094 124.988281 C 85.246094 124.988281 87.449219 125.480469 87.5625 125.039062 C 87.6875 124.558594 85.726562 121.902344 85.726562 121.902344 C 85.726562 121.902344 88.289062 122.136719 88.417969 121.636719 C 88.539062 121.179688 85.816406 119.003906 85.816406 119.003906 C 85.816406 119.003906 88 119.179688 88.222656 118.742188 C 88.441406 118.308594 86.339844 116.195312 86.339844 116.195312 C 86.339844 116.195312 89.890625 116.894531 90.273438 116.734375 C 90.65625 116.574219 87.933594 113.957031 87.933594 113.957031 C 87.933594 113.957031 90.824219 114.503906 91.191406 113.996094 C 91.46875 113.617188 89.183594 112.039062 89.183594 112.039062 C 89.183594 112.039062 93.835938 112.027344 94.222656 111.339844 C 94.476562 110.894531 90.351562 110.382812 90.351562 110.382812 C 90.351562 110.382812 95.777344 109.070312 96.210938 108.660156 C 97.863281 107.101562 83.503906 110.195312 79.308594 104.375 C 69.1875 90.332031 76.53125 72.570312 89.09375 71.894531 C 103.992188 71.089844 116.605469 80.667969 130.613281 93.28125 C 156.71875 116.78125 176.460938 122.8125 190.800781 142.761719 C 196.46875 150.640625 205.269531 167.542969 203.152344 184.734375 C 202.351562 191.230469 201.53125 198.574219 201.285156 205.097656 C 200.726562 220.199219 207.691406 228.203125 205.648438 229.4375 C 200.964844 232.269531 185.269531 211.996094 184.6875 214.589844 C 184.300781 216.304688 188.671875 231.90625 189.039062 238.53125 C 189.882812 253.675781 191.480469 271.507812 192.191406 288.8125 C 193.183594 312.949219 202.738281 315.703125 208.011719 315.703125 Z M 208.011719 315.703125 " fill-opacity="1" fill-rule="evenodd"/><g clip-path="url(#cab9d6c1d2)"><path fill="#5e17eb" d="M 208.003906 13.40625 L 208.003906 361.519531 C 208.003906 362.0625 207.980469 362.601562 207.925781 363.140625 C 207.871094 363.683594 207.792969 364.21875 207.6875 364.75 C 207.582031 365.285156 207.449219 365.808594 207.292969 366.328125 C 207.132812 366.847656 206.953125 367.359375 206.746094 367.859375 C 206.535156 368.359375 206.304688 368.851562 206.050781 369.328125 C 205.792969 369.808594 205.515625 370.273438 205.210938 370.726562 C 204.910156 371.175781 204.589844 371.613281 204.242188 372.03125 C 203.898438 372.449219 203.535156 372.851562 203.152344 373.234375 C 202.769531 373.621094 202.367188 373.984375 201.945312 374.328125 C 201.527344 374.671875 201.089844 374.996094 200.640625 375.296875 C 200.1875 375.597656 199.722656 375.878906 199.246094 376.132812 C 198.765625 376.390625 198.277344 376.621094 197.773438 376.828125 C 197.273438 377.035156 196.761719 377.21875 196.242188 377.375 C 195.726562 377.535156 195.199219 377.664062 194.667969 377.773438 C 194.132812 377.878906 193.597656 377.957031 193.058594 378.011719 C 192.515625 378.0625 191.976562 378.089844 191.433594 378.089844 L 35.25 378.089844 C 34.707031 378.089844 34.167969 378.0625 33.625 378.011719 C 33.085938 377.957031 32.550781 377.878906 32.019531 377.773438 C 31.484375 377.664062 30.960938 377.535156 30.441406 377.375 C 29.921875 377.21875 29.410156 377.035156 28.910156 376.828125 C 28.40625 376.621094 27.917969 376.390625 27.4375 376.132812 C 26.960938 375.878906 26.496094 375.597656 26.042969 375.296875 C 25.59375 374.996094 25.15625 374.671875 24.738281 374.328125 C 24.316406 373.984375 23.917969 373.621094 23.53125 373.234375 C 23.148438 372.851562 22.785156 372.449219 22.441406 372.03125 C 22.097656 371.613281 21.773438 371.175781 21.472656 370.726562 C 21.167969 370.273438 20.890625 369.808594 20.636719 369.328125 C 20.378906 368.851562 20.148438 368.359375 19.941406 367.859375 C 19.730469 367.359375 19.550781 366.847656 19.390625 366.328125 C 19.234375 365.808594 19.101562 365.285156 18.996094 364.75 C 18.890625 364.21875 18.8125 363.683594 18.757812 363.140625 C 18.703125 362.601562 18.679688 362.0625 18.679688 361.519531 L 18.679688 13.40625 C 18.679688 12.863281 18.703125 12.320312 18.757812 11.78125 C 18.8125 11.238281 18.890625 10.703125 18.996094 10.171875 C 19.101562 9.640625 19.234375 9.113281 19.390625 8.59375 C 19.550781 8.074219 19.730469 7.5625 19.941406 7.0625 C 20.148438 6.5625 20.378906 6.070312 20.636719 5.59375 C 20.890625 5.113281 21.167969 4.648438 21.472656 4.199219 C 21.773438 3.746094 22.097656 3.3125 22.441406 2.890625 C 22.785156 2.472656 23.148438 2.070312 23.53125 1.6875 C 23.917969 1.300781 24.316406 0.9375 24.738281 0.59375 C 25.15625 0.25 25.59375 -0.0742188 26.042969 -0.375 C 26.496094 -0.675781 26.960938 -0.957031 27.4375 -1.210938 C 27.917969 -1.46875 28.40625 -1.699219 28.910156 -1.90625 C 29.410156 -2.113281 29.921875 -2.296875 30.441406 -2.453125 C 30.960938 -2.613281 31.484375 -2.742188 32.019531 -2.847656 C 32.550781 -2.957031 33.085938 -3.035156 33.625 -3.089844 C 34.167969 -3.140625 34.707031 -3.167969 35.25 -3.167969 L 191.433594 -3.167969 C 191.976562 -3.167969 192.515625 -3.140625 193.058594 -3.089844 C 193.597656 -3.035156 194.132812 -2.957031 194.667969 -2.847656 C 195.199219 -2.742188 195.726562 -2.613281 196.242188 -2.453125 C 196.761719 -2.296875 197.273438 -2.113281 197.773438 -1.90625 C 198.277344 -1.699219 198.765625 -1.46875 199.246094 -1.210938 C 199.722656 -0.957031 200.1875 -0.675781 200.640625 -0.375 C 201.089844 -0.0742188 201.527344 0.25 201.945312 0.59375 C 202.367188 0.9375 202.769531 1.300781 203.152344 1.6875 C 203.535156 2.070312 203.898438 2.472656 204.242188 2.890625 C 204.589844 3.3125 204.910156 3.746094 205.210938 4.199219 C 205.515625 4.648438 205.792969 5.113281 206.050781 5.59375 C 206.304688 6.070312 206.535156 6.5625 206.746094 7.0625 C 206.953125 7.5625 207.132812 8.074219 207.292969 8.59375 C 207.449219 9.113281 207.582031 9.640625 207.6875 10.171875 C 207.792969 10.703125 207.871094 11.238281 207.925781 11.78125 C 207.980469 12.320312 208.003906 12.863281 208.003906 13.40625 Z M 208.003906 13.40625 " fill-opacity="1" fill-rule="nonzero"/></g><g fill="#ffffff" fill-opacity="1"><g transform="translate(49.44315, 175.17881)"><g><path d="M 32.484375 -8.078125 L 15.421875 -8.078125 L 12.6875 0 L 1.046875 0 L 17.578125 -45.703125 L 30.46875 -45.703125 L 47 0 L 35.21875 0 Z M 29.625 -16.65625 L 23.953125 -33.390625 L 18.359375 -16.65625 Z M 29.625 -16.65625 "/></g></g></g><g fill="#ffffff" fill-opacity="1"><g transform="translate(97.410952, 175.17881)"><g><path d="M 15.171875 -30.265625 C 16.472656 -32.265625 18.097656 -33.835938 20.046875 -34.984375 C 22.003906 -36.140625 24.175781 -36.71875 26.5625 -36.71875 L 26.5625 -24.9375 L 23.5 -24.9375 C 20.71875 -24.9375 18.632812 -24.335938 17.25 -23.140625 C 15.863281 -21.941406 15.171875 -19.847656 15.171875 -16.859375 L 15.171875 0 L 4.03125 0 L 4.03125 -36.328125 L 15.171875 -36.328125 Z M 15.171875 -30.265625 "/></g></g></g><g fill="#ffffff" fill-opacity="1"><g transform="translate(125.267427, 175.17881)"><g><path d="M 14.453125 -9.171875 L 30.203125 -9.171875 L 30.203125 0 L 2.015625 0 L 2.015625 -8.859375 L 17.125 -27.140625 L 2.140625 -27.140625 L 2.140625 -36.328125 L 29.875 -36.328125 L 29.875 -27.46875 Z M 14.453125 -9.171875 "/></g></g></g><g fill="#ffffff" fill-opacity="1"><g transform="translate(157.549693, 175.17881)"><g><path d="M 39.90625 -36.328125 L 39.90625 0 L 28.765625 0 L 28.765625 -4.953125 C 27.640625 -3.335938 26.109375 -2.039062 24.171875 -1.0625 C 22.242188 -0.09375 20.109375 0.390625 17.765625 0.390625 C 14.992188 0.390625 12.539062 -0.222656 10.40625 -1.453125 C 8.28125 -2.691406 6.628906 -4.484375 5.453125 -6.828125 C 4.285156 -9.171875 3.703125 -11.929688 3.703125 -15.109375 L 3.703125 -36.328125 L 14.78125 -36.328125 L 14.78125 -16.59375 C 14.78125 -14.164062 15.40625 -12.28125 16.65625 -10.9375 C 17.914062 -9.59375 19.609375 -8.921875 21.734375 -8.921875 C 23.910156 -8.921875 25.625 -9.59375 26.875 -10.9375 C 28.132812 -12.28125 28.765625 -14.164062 28.765625 -16.59375 L 28.765625 -36.328125 Z M 39.90625 -36.328125 "/></g></g></g><g fill="#ffffff" fill-opacity="1"><g transform="translate(27.442173, 245.353108)"><g><path d="M 43.21875 -45.703125 L 27.40625 -15.109375 L 27.40625 0 L 16.28125 0 L 16.28125 -15.109375 L 0.453125 -45.703125 L 13.078125 -45.703125 L 21.9375 -26.5625 L 30.71875 -45.703125 Z M 43.21875 -45.703125 "/></g></g></g><g fill="#ffffff" fill-opacity="1"><g transform="translate(71.114352, 245.353108)"><g><path d="M 39.90625 -36.328125 L 39.90625 0 L 28.765625 0 L 28.765625 -4.953125 C 27.640625 -3.335938 26.109375 -2.039062 24.171875 -1.0625 C 22.242188 -0.09375 20.109375 0.390625 17.765625 0.390625 C 14.992188 0.390625 12.539062 -0.222656 10.40625 -1.453125 C 8.28125 -2.691406 6.628906 -4.484375 5.453125 -6.828125 C 4.285156 -9.171875 3.703125 -11.929688 3.703125 -15.109375 L 3.703125 -36.328125 L 14.78125 -36.328125 L 14.78125 -16.59375 C 14.78125 -14.164062 15.40625 -12.28125 16.65625 -10.9375 C 17.914062 -9.59375 19.609375 -8.921875 21.734375 -8.921875 C 23.910156 -8.921875 25.625 -9.59375 26.875 -10.9375 C 28.132812 -12.28125 28.765625 -14.164062 28.765625 -16.59375 L 28.765625 -36.328125 Z M 39.90625 -36.328125 "/></g></g></g><g fill="#ffffff" fill-opacity="1"><g transform="translate(114.981785, 245.353108)"><g><path d="M 15.171875 -30.265625 C 16.472656 -32.265625 18.097656 -33.835938 20.046875 -34.984375 C 22.003906 -36.140625 24.175781 -36.71875 26.5625 -36.71875 L 26.5625 -24.9375 L 23.5 -24.9375 C 20.71875 -24.9375 18.632812 -24.335938 17.25 -23.140625 C 15.863281 -21.941406 15.171875 -19.847656 15.171875 -16.859375 L 15.171875 0 L 4.03125 0 L 4.03125 -36.328125 L 15.171875 -36.328125 Z M 15.171875 -30.265625 "/></g></g></g><g fill="#ffffff" fill-opacity="1"><g transform="translate(142.838259, 245.353108)"><g><path d="M 1.828125 -18.15625 C 1.828125 -21.9375 2.59375 -25.234375 4.125 -28.046875 C 5.664062 -30.867188 7.816406 -33.039062 10.578125 -34.5625 C 13.335938 -36.082031 16.492188 -36.84375 20.046875 -36.84375 C 24.609375 -36.84375 28.414062 -35.648438 31.46875 -33.265625 C 34.53125 -30.878906 36.539062 -27.515625 37.5 -23.171875 L 25.640625 -23.171875 C 24.648438 -25.953125 22.722656 -27.34375 19.859375 -27.34375 C 17.816406 -27.34375 16.1875 -26.550781 14.96875 -24.96875 C 13.757812 -23.382812 13.15625 -21.113281 13.15625 -18.15625 C 13.15625 -15.207031 13.757812 -12.941406 14.96875 -11.359375 C 16.1875 -9.773438 17.816406 -8.984375 19.859375 -8.984375 C 22.722656 -8.984375 24.648438 -10.375 25.640625 -13.15625 L 37.5 -13.15625 C 36.539062 -8.894531 34.519531 -5.550781 31.4375 -3.125 C 28.351562 -0.695312 24.554688 0.515625 20.046875 0.515625 C 16.492188 0.515625 13.335938 -0.238281 10.578125 -1.75 C 7.816406 -3.269531 5.664062 -5.441406 4.125 -8.265625 C 2.59375 -11.085938 1.828125 -14.382812 1.828125 -18.15625 Z M 1.828125 -18.15625 "/></g></g></g><g fill="#ffffff" fill-opacity="1"><g transform="translate(182.214816, 245.353108)"><g><path d="M 9.640625 -40.09375 C 7.679688 -40.09375 6.082031 -40.664062 4.84375 -41.8125 C 3.613281 -42.96875 3 -44.394531 3 -46.09375 C 3 -47.820312 3.613281 -49.257812 4.84375 -50.40625 C 6.082031 -51.5625 7.679688 -52.140625 9.640625 -52.140625 C 11.546875 -52.140625 13.113281 -51.5625 14.34375 -50.40625 C 15.582031 -49.257812 16.203125 -47.820312 16.203125 -46.09375 C 16.203125 -44.394531 15.582031 -42.96875 14.34375 -41.8125 C 13.113281 -40.664062 11.546875 -40.09375 9.640625 -40.09375 Z M 15.171875 -36.328125 L 15.171875 0 L 4.03125 0 L 4.03125 -36.328125 Z M 15.171875 -36.328125 "/></g></g></g><g fill="#ffffff" fill-opacity="1"><g transform="translate(86.203148, 103.587067)"><g><path d="M 9.828125 -22.625 C 12.234375 -22.625 14.34375 -22.160156 16.15625 -21.234375 C 17.96875 -20.316406 19.367188 -18.992188 20.359375 -17.265625 C 21.347656 -15.535156 21.84375 -13.523438 21.84375 -11.234375 C 21.84375 -8.929688 21.347656 -6.929688 20.359375 -5.234375 C 19.367188 -3.546875 17.96875 -2.25 16.15625 -1.34375 C 14.34375 -0.445312 12.234375 0 9.828125 0 L 2.4375 0 L 2.4375 -22.625 Z M 9.828125 -3.03125 C 12.472656 -3.03125 14.5 -3.742188 15.90625 -5.171875 C 17.320312 -6.609375 18.03125 -8.628906 18.03125 -11.234375 C 18.03125 -13.859375 17.320312 -15.90625 15.90625 -17.375 C 14.5 -18.851562 12.472656 -19.59375 9.828125 -19.59375 L 6.15625 -19.59375 L 6.15625 -3.03125 Z M 9.828125 -3.03125 "/></g></g></g><g fill="#ffffff" fill-opacity="1"><g transform="translate(109.271606, 103.587067)"><g><path d="M 10.21875 0.296875 C 8.53125 0.296875 7 -0.0859375 5.625 -0.859375 C 4.257812 -1.628906 3.1875 -2.710938 2.40625 -4.109375 C 1.625 -5.515625 1.234375 -7.140625 1.234375 -8.984375 C 1.234375 -10.804688 1.632812 -12.421875 2.4375 -13.828125 C 3.238281 -15.242188 4.332031 -16.328125 5.71875 -17.078125 C 7.113281 -17.835938 8.664062 -18.21875 10.375 -18.21875 C 12.09375 -18.21875 13.644531 -17.835938 15.03125 -17.078125 C 16.425781 -16.328125 17.523438 -15.242188 18.328125 -13.828125 C 19.128906 -12.421875 19.53125 -10.804688 19.53125 -8.984375 C 19.53125 -7.160156 19.113281 -5.539062 18.28125 -4.125 C 17.457031 -2.71875 16.335938 -1.628906 14.921875 -0.859375 C 13.503906 -0.0859375 11.9375 0.296875 10.21875 0.296875 Z M 10.21875 -2.921875 C 11.175781 -2.921875 12.070312 -3.148438 12.90625 -3.609375 C 13.738281 -4.066406 14.414062 -4.75 14.9375 -5.65625 C 15.457031 -6.570312 15.71875 -7.679688 15.71875 -8.984375 C 15.71875 -10.285156 15.46875 -11.382812 14.96875 -12.28125 C 14.46875 -13.1875 13.804688 -13.863281 12.984375 -14.3125 C 12.160156 -14.769531 11.269531 -15 10.3125 -15 C 9.363281 -15 8.476562 -14.769531 7.65625 -14.3125 C 6.84375 -13.863281 6.195312 -13.1875 5.71875 -12.28125 C 5.25 -11.382812 5.015625 -10.285156 5.015625 -8.984375 C 5.015625 -7.054688 5.503906 -5.5625 6.484375 -4.5 C 7.472656 -3.445312 8.71875 -2.921875 10.21875 -2.921875 Z M 10.21875 -2.921875 "/></g></g></g><g fill="#ffffff" fill-opacity="1"><g transform="translate(130.029961, 103.587067)"><g><path d="M 1.203125 -8.984375 C 1.203125 -10.828125 1.578125 -12.445312 2.328125 -13.84375 C 3.078125 -15.25 4.113281 -16.328125 5.4375 -17.078125 C 6.757812 -17.835938 8.273438 -18.21875 9.984375 -18.21875 C 12.160156 -18.21875 13.957031 -17.703125 15.375 -16.671875 C 16.800781 -15.648438 17.765625 -14.179688 18.265625 -12.265625 L 14.25 -12.265625 C 13.925781 -13.160156 13.40625 -13.859375 12.6875 -14.359375 C 11.976562 -14.859375 11.078125 -15.109375 9.984375 -15.109375 C 8.472656 -15.109375 7.265625 -14.566406 6.359375 -13.484375 C 5.460938 -12.410156 5.015625 -10.910156 5.015625 -8.984375 C 5.015625 -7.054688 5.460938 -5.546875 6.359375 -4.453125 C 7.265625 -3.367188 8.472656 -2.828125 9.984375 -2.828125 C 12.140625 -2.828125 13.5625 -3.769531 14.25 -5.65625 L 18.265625 -5.65625 C 17.742188 -3.832031 16.765625 -2.382812 15.328125 -1.3125 C 13.898438 -0.238281 12.117188 0.296875 9.984375 0.296875 C 8.273438 0.296875 6.757812 -0.0859375 5.4375 -0.859375 C 4.113281 -1.628906 3.078125 -2.710938 2.328125 -4.109375 C 1.578125 -5.515625 1.203125 -7.140625 1.203125 -8.984375 Z M 1.203125 -8.984375 "/></g></g></g><g fill="#ffffff" fill-opacity="1"><g transform="translate(149.55192, 103.587067)"><g><path d="M 3.9375 0.234375 C 3.257812 0.234375 2.691406 0.00390625 2.234375 -0.453125 C 1.785156 -0.910156 1.5625 -1.472656 1.5625 -2.140625 C 1.5625 -2.816406 1.785156 -3.382812 2.234375 -3.84375 C 2.691406 -4.300781 3.257812 -4.53125 3.9375 -4.53125 C 4.59375 -4.53125 5.144531 -4.300781 5.59375 -3.84375 C 6.050781 -3.382812 6.28125 -2.816406 6.28125 -2.140625 C 6.28125 -1.472656 6.050781 -0.910156 5.59375 -0.453125 C 5.144531 0.00390625 4.59375 0.234375 3.9375 0.234375 Z M 3.9375 0.234375 "/></g></g></g><g fill="#ffffff" fill-opacity="1"><g transform="translate(157.393238, 103.587067)"><g/></g></g><g fill="#ffffff" fill-opacity="1"><g transform="translate(165.852755, 103.587067)"><g><path d="M 9.828125 -22.625 C 12.234375 -22.625 14.34375 -22.160156 16.15625 -21.234375 C 17.96875 -20.316406 19.367188 -18.992188 20.359375 -17.265625 C 21.347656 -15.535156 21.84375 -13.523438 21.84375 -11.234375 C 21.84375 -8.929688 21.347656 -6.929688 20.359375 -5.234375 C 19.367188 -3.546875 17.96875 -2.25 16.15625 -1.34375 C 14.34375 -0.445312 12.234375 0 9.828125 0 L 2.4375 0 L 2.4375 -22.625 Z M 9.828125 -3.03125 C 12.472656 -3.03125 14.5 -3.742188 15.90625 -5.171875 C 17.320312 -6.609375 18.03125 -8.628906 18.03125 -11.234375 C 18.03125 -13.859375 17.320312 -15.90625 15.90625 -17.375 C 14.5 -18.851562 12.472656 -19.59375 9.828125 -19.59375 L 6.15625 -19.59375 L 6.15625 -3.03125 Z M 9.828125 -3.03125 "/></g></g></g><g fill="#ffffff" fill-opacity="1"><g transform="translate(188.921213, 103.587067)"><g><path d="M 6.15625 -15.328125 C 6.695312 -16.242188 7.414062 -16.953125 8.3125 -17.453125 C 9.21875 -17.960938 10.285156 -18.21875 11.515625 -18.21875 L 11.515625 -14.390625 L 10.578125 -14.390625 C 9.117188 -14.390625 8.015625 -14.019531 7.265625 -13.28125 C 6.523438 -12.539062 6.15625 -11.257812 6.15625 -9.4375 L 6.15625 0 L 2.4375 0 L 2.4375 -17.9375 L 6.15625 -17.9375 Z M 6.15625 -15.328125 "/></g></g></g><g fill="#ffffff" fill-opacity="1"><g transform="translate(25.886974, 288.426333)"><g><path d="M 7.734375 0 L 3.1875 -5.25 L 3.1875 0 L 1.265625 0 L 1.265625 -11.734375 L 3.1875 -11.734375 L 3.1875 -6.375 L 7.75 -11.734375 L 10.15625 -11.734375 L 5.0625 -5.859375 L 10.25 0 Z M 7.734375 0 "/></g></g></g><g fill="#ffffff" fill-opacity="1"><g transform="translate(36.56693, 288.426333)"><g><path d="M 0.625 -4.6875 C 0.625 -5.625 0.816406 -6.453125 1.203125 -7.171875 C 1.585938 -7.890625 2.113281 -8.445312 2.78125 -8.84375 C 3.457031 -9.25 4.203125 -9.453125 5.015625 -9.453125 C 5.742188 -9.453125 6.378906 -9.304688 6.921875 -9.015625 C 7.472656 -8.734375 7.910156 -8.378906 8.234375 -7.953125 L 8.234375 -9.296875 L 10.171875 -9.296875 L 10.171875 0 L 8.234375 0 L 8.234375 -1.390625 C 7.910156 -0.941406 7.46875 -0.570312 6.90625 -0.28125 C 6.34375 0.0078125 5.703125 0.15625 4.984375 0.15625 C 4.179688 0.15625 3.445312 -0.046875 2.78125 -0.453125 C 2.113281 -0.867188 1.585938 -1.445312 1.203125 -2.1875 C 0.816406 -2.925781 0.625 -3.757812 0.625 -4.6875 Z M 8.234375 -4.65625 C 8.234375 -5.300781 8.097656 -5.859375 7.828125 -6.328125 C 7.566406 -6.796875 7.222656 -7.15625 6.796875 -7.40625 C 6.367188 -7.65625 5.910156 -7.78125 5.421875 -7.78125 C 4.921875 -7.78125 4.457031 -7.65625 4.03125 -7.40625 C 3.601562 -7.164062 3.253906 -6.8125 2.984375 -6.34375 C 2.722656 -5.882812 2.59375 -5.332031 2.59375 -4.6875 C 2.59375 -4.050781 2.722656 -3.488281 2.984375 -3 C 3.253906 -2.519531 3.601562 -2.148438 4.03125 -1.890625 C 4.46875 -1.640625 4.929688 -1.515625 5.421875 -1.515625 C 5.910156 -1.515625 6.367188 -1.640625 6.796875 -1.890625 C 7.222656 -2.140625 7.566406 -2.503906 7.828125 -2.984375 C 8.097656 -3.460938 8.234375 -4.019531 8.234375 -4.65625 Z M 8.234375 -4.65625 "/></g></g></g><g fill="#ffffff" fill-opacity="1"><g transform="translate(48.006129, 288.426333)"><g><path d="M 0.625 -4.6875 C 0.625 -5.625 0.816406 -6.453125 1.203125 -7.171875 C 1.585938 -7.890625 2.113281 -8.445312 2.78125 -8.84375 C 3.457031 -9.25 4.207031 -9.453125 5.03125 -9.453125 C 5.632812 -9.453125 6.234375 -9.316406 6.828125 -9.046875 C 7.421875 -8.785156 7.890625 -8.4375 8.234375 -8 L 8.234375 -12.484375 L 10.171875 -12.484375 L 10.171875 0 L 8.234375 0 L 8.234375 -1.40625 C 7.921875 -0.945312 7.484375 -0.570312 6.921875 -0.28125 C 6.367188 0.0078125 5.734375 0.15625 5.015625 0.15625 C 4.203125 0.15625 3.457031 -0.046875 2.78125 -0.453125 C 2.113281 -0.867188 1.585938 -1.445312 1.203125 -2.1875 C 0.816406 -2.925781 0.625 -3.757812 0.625 -4.6875 Z M 8.234375 -4.65625 C 8.234375 -5.300781 8.097656 -5.859375 7.828125 -6.328125 C 7.566406 -6.796875 7.222656 -7.15625 6.796875 -7.40625 C 6.367188 -7.65625 5.910156 -7.78125 5.421875 -7.78125 C 4.921875 -7.78125 4.457031 -7.65625 4.03125 -7.40625 C 3.601562 -7.164062 3.253906 -6.8125 2.984375 -6.34375 C 2.722656 -5.882812 2.59375 -5.332031 2.59375 -4.6875 C 2.59375 -4.050781 2.722656 -3.488281 2.984375 -3 C 3.253906 -2.519531 3.601562 -2.148438 4.03125 -1.890625 C 4.46875 -1.640625 4.929688 -1.515625 5.421875 -1.515625 C 5.910156 -1.515625 6.367188 -1.640625 6.796875 -1.890625 C 7.222656 -2.140625 7.566406 -2.503906 7.828125 -2.984375 C 8.097656 -3.460938 8.234375 -4.019531 8.234375 -4.65625 Z M 8.234375 -4.65625 "/></g></g></g><g fill="#ffffff" fill-opacity="1"><g transform="translate(59.445328, 288.426333)"><g><path d="M 3.1875 -9.296875 L 3.1875 0 L 1.265625 0 L 1.265625 -9.296875 Z M 3.1875 -9.296875 "/></g></g></g><g fill="#ffffff" fill-opacity="1"><g transform="translate(63.899527, 288.426333)"><g><path d="M 5.953125 -9.453125 C 6.679688 -9.453125 7.335938 -9.296875 7.921875 -8.984375 C 8.503906 -8.679688 8.957031 -8.234375 9.28125 -7.640625 C 9.601562 -7.046875 9.765625 -6.328125 9.765625 -5.484375 L 9.765625 0 L 7.859375 0 L 7.859375 -5.203125 C 7.859375 -6.035156 7.648438 -6.671875 7.234375 -7.109375 C 6.816406 -7.554688 6.25 -7.78125 5.53125 -7.78125 C 4.8125 -7.78125 4.238281 -7.554688 3.8125 -7.109375 C 3.394531 -6.671875 3.1875 -6.035156 3.1875 -5.203125 L 3.1875 0 L 1.265625 0 L 1.265625 -9.296875 L 3.1875 -9.296875 L 3.1875 -8.234375 C 3.5 -8.617188 3.898438 -8.914062 4.390625 -9.125 C 4.878906 -9.34375 5.398438 -9.453125 5.953125 -9.453125 Z M 5.953125 -9.453125 "/></g></g></g><g fill="#ffffff" fill-opacity="1"><g transform="translate(74.849442, 288.426333)"><g/></g></g><g fill="#ffffff" fill-opacity="1"><g transform="translate(79.23616, 288.426333)"><g><path d="M 10.625 -11.734375 L 10.625 0 L 8.703125 0 L 8.703125 -5.125 L 3.1875 -5.125 L 3.1875 0 L 1.265625 0 L 1.265625 -11.734375 L 3.1875 -11.734375 L 3.1875 -6.703125 L 8.703125 -6.703125 L 8.703125 -11.734375 Z M 10.625 -11.734375 "/></g></g></g><g fill="#ffffff" fill-opacity="1"><g transform="translate(91.130896, 288.426333)"><g><path d="M 0.625 -4.6875 C 0.625 -5.625 0.816406 -6.453125 1.203125 -7.171875 C 1.585938 -7.890625 2.113281 -8.445312 2.78125 -8.84375 C 3.457031 -9.25 4.203125 -9.453125 5.015625 -9.453125 C 5.742188 -9.453125 6.378906 -9.304688 6.921875 -9.015625 C 7.472656 -8.734375 7.910156 -8.378906 8.234375 -7.953125 L 8.234375 -9.296875 L 10.171875 -9.296875 L 10.171875 0 L 8.234375 0 L 8.234375 -1.390625 C 7.910156 -0.941406 7.46875 -0.570312 6.90625 -0.28125 C 6.34375 0.0078125 5.703125 0.15625 4.984375 0.15625 C 4.179688 0.15625 3.445312 -0.046875 2.78125 -0.453125 C 2.113281 -0.867188 1.585938 -1.445312 1.203125 -2.1875 C 0.816406 -2.925781 0.625 -3.757812 0.625 -4.6875 Z M 8.234375 -4.65625 C 8.234375 -5.300781 8.097656 -5.859375 7.828125 -6.328125 C 7.566406 -6.796875 7.222656 -7.15625 6.796875 -7.40625 C 6.367188 -7.65625 5.910156 -7.78125 5.421875 -7.78125 C 4.921875 -7.78125 4.457031 -7.65625 4.03125 -7.40625 C 3.601562 -7.164062 3.253906 -6.8125 2.984375 -6.34375 C 2.722656 -5.882812 2.59375 -5.332031 2.59375 -4.6875 C 2.59375 -4.050781 2.722656 -3.488281 2.984375 -3 C 3.253906 -2.519531 3.601562 -2.148438 4.03125 -1.890625 C 4.46875 -1.640625 4.929688 -1.515625 5.421875 -1.515625 C 5.910156 -1.515625 6.367188 -1.640625 6.796875 -1.890625 C 7.222656 -2.140625 7.566406 -2.503906 7.828125 -2.984375 C 8.097656 -3.460938 8.234375 -4.019531 8.234375 -4.65625 Z M 8.234375 -4.65625 "/></g></g></g><g fill="#ffffff" fill-opacity="1"><g transform="translate(102.570095, 288.426333)"><g><path d="M 4.640625 0.15625 C 3.910156 0.15625 3.253906 0.0234375 2.671875 -0.234375 C 2.097656 -0.503906 1.640625 -0.867188 1.296875 -1.328125 C 0.960938 -1.785156 0.785156 -2.296875 0.765625 -2.859375 L 2.75 -2.859375 C 2.78125 -2.460938 2.96875 -2.128906 3.3125 -1.859375 C 3.65625 -1.597656 4.085938 -1.46875 4.609375 -1.46875 C 5.148438 -1.46875 5.566406 -1.570312 5.859375 -1.78125 C 6.160156 -1.988281 6.3125 -2.253906 6.3125 -2.578125 C 6.3125 -2.929688 6.144531 -3.191406 5.8125 -3.359375 C 5.476562 -3.523438 4.953125 -3.710938 4.234375 -3.921875 C 3.535156 -4.109375 2.96875 -4.289062 2.53125 -4.46875 C 2.09375 -4.644531 1.710938 -4.921875 1.390625 -5.296875 C 1.066406 -5.671875 0.90625 -6.160156 0.90625 -6.765625 C 0.90625 -7.265625 1.050781 -7.71875 1.34375 -8.125 C 1.632812 -8.53125 2.050781 -8.851562 2.59375 -9.09375 C 3.144531 -9.332031 3.773438 -9.453125 4.484375 -9.453125 C 5.546875 -9.453125 6.398438 -9.179688 7.046875 -8.640625 C 7.691406 -8.109375 8.035156 -7.382812 8.078125 -6.46875 L 6.15625 -6.46875 C 6.125 -6.882812 5.957031 -7.210938 5.65625 -7.453125 C 5.351562 -7.703125 4.941406 -7.828125 4.421875 -7.828125 C 3.910156 -7.828125 3.519531 -7.726562 3.25 -7.53125 C 2.988281 -7.34375 2.859375 -7.09375 2.859375 -6.78125 C 2.859375 -6.53125 2.945312 -6.320312 3.125 -6.15625 C 3.300781 -5.988281 3.519531 -5.859375 3.78125 -5.765625 C 4.039062 -5.671875 4.421875 -5.550781 4.921875 -5.40625 C 5.597656 -5.21875 6.148438 -5.03125 6.578125 -4.84375 C 7.015625 -4.664062 7.390625 -4.394531 7.703125 -4.03125 C 8.023438 -3.675781 8.191406 -3.195312 8.203125 -2.59375 C 8.203125 -2.070312 8.054688 -1.601562 7.765625 -1.1875 C 7.472656 -0.769531 7.054688 -0.441406 6.515625 -0.203125 C 5.984375 0.0351562 5.359375 0.15625 4.640625 0.15625 Z M 4.640625 0.15625 "/></g></g></g><g fill="#ffffff" fill-opacity="1"><g transform="translate(111.579733, 288.426333)"><g><path d="M 3.515625 -7.734375 L 3.515625 -2.578125 C 3.515625 -2.234375 3.59375 -1.984375 3.75 -1.828125 C 3.914062 -1.679688 4.195312 -1.609375 4.59375 -1.609375 L 5.765625 -1.609375 L 5.765625 0 L 4.25 0 C 3.382812 0 2.71875 -0.203125 2.25 -0.609375 C 1.789062 -1.015625 1.5625 -1.671875 1.5625 -2.578125 L 1.5625 -7.734375 L 0.46875 -7.734375 L 0.46875 -9.296875 L 1.5625 -9.296875 L 1.5625 -11.609375 L 3.515625 -11.609375 L 3.515625 -9.296875 L 5.765625 -9.296875 L 5.765625 -7.734375 Z M 3.515625 -7.734375 "/></g></g></g><g fill="#ffffff" fill-opacity="1"><g transform="translate(117.856103, 288.426333)"><g><path d="M 0.625 -4.6875 C 0.625 -5.625 0.816406 -6.453125 1.203125 -7.171875 C 1.585938 -7.890625 2.113281 -8.445312 2.78125 -8.84375 C 3.457031 -9.25 4.203125 -9.453125 5.015625 -9.453125 C 5.742188 -9.453125 6.378906 -9.304688 6.921875 -9.015625 C 7.472656 -8.734375 7.910156 -8.378906 8.234375 -7.953125 L 8.234375 -9.296875 L 10.171875 -9.296875 L 10.171875 0 L 8.234375 0 L 8.234375 -1.390625 C 7.910156 -0.941406 7.46875 -0.570312 6.90625 -0.28125 C 6.34375 0.0078125 5.703125 0.15625 4.984375 0.15625 C 4.179688 0.15625 3.445312 -0.046875 2.78125 -0.453125 C 2.113281 -0.867188 1.585938 -1.445312 1.203125 -2.1875 C 0.816406 -2.925781 0.625 -3.757812 0.625 -4.6875 Z M 8.234375 -4.65625 C 8.234375 -5.300781 8.097656 -5.859375 7.828125 -6.328125 C 7.566406 -6.796875 7.222656 -7.15625 6.796875 -7.40625 C 6.367188 -7.65625 5.910156 -7.78125 5.421875 -7.78125 C 4.921875 -7.78125 4.457031 -7.65625 4.03125 -7.40625 C 3.601562 -7.164062 3.253906 -6.8125 2.984375 -6.34375 C 2.722656 -5.882812 2.59375 -5.332031 2.59375 -4.6875 C 2.59375 -4.050781 2.722656 -3.488281 2.984375 -3 C 3.253906 -2.519531 3.601562 -2.148438 4.03125 -1.890625 C 4.46875 -1.640625 4.929688 -1.515625 5.421875 -1.515625 C 5.910156 -1.515625 6.367188 -1.640625 6.796875 -1.890625 C 7.222656 -2.140625 7.566406 -2.503906 7.828125 -2.984375 C 8.097656 -3.460938 8.234375 -4.019531 8.234375 -4.65625 Z M 8.234375 -4.65625 "/></g></g></g><g fill="#ffffff" fill-opacity="1"><g transform="translate(129.295302, 288.426333)"><g><path d="M 3.1875 -12.484375 L 3.1875 0 L 1.265625 0 L 1.265625 -12.484375 Z M 3.1875 -12.484375 "/></g></g></g><g fill="#ffffff" fill-opacity="1"><g transform="translate(133.749502, 288.426333)"><g><path d="M 3.1875 -9.296875 L 3.1875 0 L 1.265625 0 L 1.265625 -9.296875 Z M 3.1875 -9.296875 "/></g></g></g><g fill="#ffffff" fill-opacity="1"><g transform="translate(138.203701, 288.426333)"><g><path d="M 4.9375 -4.640625 L 9.234375 0 L 6.625 0 L 3.1875 -4 L 3.1875 0 L 1.265625 0 L 1.265625 -12.484375 L 3.1875 -12.484375 L 3.1875 -5.234375 L 6.5625 -9.296875 L 9.234375 -9.296875 Z M 4.9375 -4.640625 "/></g></g></g><g fill="#ffffff" fill-opacity="1"><g transform="translate(147.550769, 288.426333)"><g><path d="M 3.1875 -12.484375 L 3.1875 0 L 1.265625 0 L 1.265625 -12.484375 Z M 3.1875 -12.484375 "/></g></g></g><g fill="#ffffff" fill-opacity="1"><g transform="translate(152.004969, 288.426333)"><g><path d="M 0.625 -4.6875 C 0.625 -5.625 0.816406 -6.453125 1.203125 -7.171875 C 1.585938 -7.890625 2.113281 -8.445312 2.78125 -8.84375 C 3.457031 -9.25 4.203125 -9.453125 5.015625 -9.453125 C 5.742188 -9.453125 6.378906 -9.304688 6.921875 -9.015625 C 7.472656 -8.734375 7.910156 -8.378906 8.234375 -7.953125 L 8.234375 -9.296875 L 10.171875 -9.296875 L 10.171875 0 L 8.234375 0 L 8.234375 -1.390625 C 7.910156 -0.941406 7.46875 -0.570312 6.90625 -0.28125 C 6.34375 0.0078125 5.703125 0.15625 4.984375 0.15625 C 4.179688 0.15625 3.445312 -0.046875 2.78125 -0.453125 C 2.113281 -0.867188 1.585938 -1.445312 1.203125 -2.1875 C 0.816406 -2.925781 0.625 -3.757812 0.625 -4.6875 Z M 8.234375 -4.65625 C 8.234375 -5.300781 8.097656 -5.859375 7.828125 -6.328125 C 7.566406 -6.796875 7.222656 -7.15625 6.796875 -7.40625 C 6.367188 -7.65625 5.910156 -7.78125 5.421875 -7.78125 C 4.921875 -7.78125 4.457031 -7.65625 4.03125 -7.40625 C 3.601562 -7.164062 3.253906 -6.8125 2.984375 -6.34375 C 2.722656 -5.882812 2.59375 -5.332031 2.59375 -4.6875 C 2.59375 -4.050781 2.722656 -3.488281 2.984375 -3 C 3.253906 -2.519531 3.601562 -2.148438 4.03125 -1.890625 C 4.46875 -1.640625 4.929688 -1.515625 5.421875 -1.515625 C 5.910156 -1.515625 6.367188 -1.640625 6.796875 -1.890625 C 7.222656 -2.140625 7.566406 -2.503906 7.828125 -2.984375 C 8.097656 -3.460938 8.234375 -4.019531 8.234375 -4.65625 Z M 8.234375 -4.65625 "/></g></g></g><g fill="#ffffff" fill-opacity="1"><g transform="translate(163.444168, 288.426333)"><g><path d="M 3.1875 -7.953125 C 3.46875 -8.421875 3.84375 -8.785156 4.3125 -9.046875 C 4.78125 -9.316406 5.332031 -9.453125 5.96875 -9.453125 L 5.96875 -7.453125 L 5.484375 -7.453125 C 4.734375 -7.453125 4.160156 -7.257812 3.765625 -6.875 C 3.378906 -6.5 3.1875 -5.835938 3.1875 -4.890625 L 3.1875 0 L 1.265625 0 L 1.265625 -9.296875 L 3.1875 -9.296875 Z M 3.1875 -7.953125 "/></g></g></g><g fill="#ffffff" fill-opacity="1"><g transform="translate(169.923005, 288.426333)"><g><path d="M 3.1875 -9.296875 L 3.1875 0 L 1.265625 0 L 1.265625 -9.296875 Z M 3.1875 -9.296875 "/></g></g></g><g fill="#ffffff" fill-opacity="1"><g transform="translate(174.377204, 288.426333)"><g/></g></g><g fill="#ffffff" fill-opacity="1"><g transform="translate(178.763922, 288.426333)"><g><path d="M 4.859375 -1.71875 L 7.5 -9.296875 L 9.53125 -9.296875 L 5.984375 0 L 3.703125 0 L 0.171875 -9.296875 L 2.234375 -9.296875 Z M 4.859375 -1.71875 "/></g></g></g><g fill="#ffffff" fill-opacity="1"><g transform="translate(188.482178, 288.426333)"><g><path d="M 9.78125 -4.875 C 9.78125 -4.53125 9.757812 -4.21875 9.71875 -3.9375 L 2.609375 -3.9375 C 2.671875 -3.1875 2.945312 -2.585938 3.4375 -2.140625 C 3.9375 -1.691406 4.546875 -1.46875 5.265625 -1.46875 C 6.296875 -1.46875 7.023438 -1.898438 7.453125 -2.765625 L 9.53125 -2.765625 C 9.25 -1.910156 8.738281 -1.207031 8 -0.65625 C 7.269531 -0.113281 6.359375 0.15625 5.265625 0.15625 C 4.378906 0.15625 3.582031 -0.0390625 2.875 -0.4375 C 2.175781 -0.84375 1.625 -1.40625 1.21875 -2.125 C 0.820312 -2.851562 0.625 -3.695312 0.625 -4.65625 C 0.625 -5.613281 0.816406 -6.453125 1.203125 -7.171875 C 1.585938 -7.898438 2.128906 -8.460938 2.828125 -8.859375 C 3.535156 -9.253906 4.347656 -9.453125 5.265625 -9.453125 C 6.140625 -9.453125 6.921875 -9.257812 7.609375 -8.875 C 8.296875 -8.488281 8.828125 -7.953125 9.203125 -7.265625 C 9.585938 -6.578125 9.78125 -5.78125 9.78125 -4.875 Z M 7.78125 -5.484375 C 7.769531 -6.191406 7.515625 -6.757812 7.015625 -7.1875 C 6.523438 -7.613281 5.914062 -7.828125 5.1875 -7.828125 C 4.519531 -7.828125 3.945312 -7.613281 3.46875 -7.1875 C 3 -6.769531 2.71875 -6.203125 2.625 -5.484375 Z M 7.78125 -5.484375 "/></g></g></g><g fill="#ffffff" fill-opacity="1"><g transform="translate(70.42612, 311.931249)"><g><path d="M 5.09375 -11.734375 C 6.34375 -11.734375 7.4375 -11.492188 8.375 -11.015625 C 9.3125 -10.535156 10.035156 -9.847656 10.546875 -8.953125 C 11.066406 -8.054688 11.328125 -7.015625 11.328125 -5.828125 C 11.328125 -4.628906 11.066406 -3.59375 10.546875 -2.71875 C 10.035156 -1.84375 9.3125 -1.171875 8.375 -0.703125 C 7.4375 -0.234375 6.34375 0 5.09375 0 L 1.265625 0 L 1.265625 -11.734375 Z M 5.09375 -1.5625 C 6.46875 -1.5625 7.519531 -1.929688 8.25 -2.671875 C 8.976562 -3.421875 9.34375 -4.472656 9.34375 -5.828125 C 9.34375 -7.179688 8.976562 -8.238281 8.25 -9 C 7.519531 -9.769531 6.46875 -10.15625 5.09375 -10.15625 L 3.1875 -10.15625 L 3.1875 -1.5625 Z M 5.09375 -1.5625 "/></g></g></g><g fill="#ffffff" fill-opacity="1"><g transform="translate(82.388349, 311.931249)"><g><path d="M 5.296875 0.15625 C 4.421875 0.15625 3.628906 -0.0390625 2.921875 -0.4375 C 2.210938 -0.84375 1.65625 -1.40625 1.25 -2.125 C 0.84375 -2.851562 0.640625 -3.695312 0.640625 -4.65625 C 0.640625 -5.601562 0.847656 -6.441406 1.265625 -7.171875 C 1.679688 -7.898438 2.25 -8.460938 2.96875 -8.859375 C 3.6875 -9.253906 4.492188 -9.453125 5.390625 -9.453125 C 6.273438 -9.453125 7.078125 -9.253906 7.796875 -8.859375 C 8.515625 -8.460938 9.082031 -7.898438 9.5 -7.171875 C 9.914062 -6.441406 10.125 -5.601562 10.125 -4.65625 C 10.125 -3.707031 9.910156 -2.867188 9.484375 -2.140625 C 9.054688 -1.410156 8.472656 -0.84375 7.734375 -0.4375 C 6.992188 -0.0390625 6.179688 0.15625 5.296875 0.15625 Z M 5.296875 -1.515625 C 5.796875 -1.515625 6.257812 -1.632812 6.6875 -1.875 C 7.125 -2.113281 7.476562 -2.46875 7.75 -2.9375 C 8.019531 -3.40625 8.15625 -3.976562 8.15625 -4.65625 C 8.15625 -5.332031 8.023438 -5.90625 7.765625 -6.375 C 7.503906 -6.84375 7.160156 -7.191406 6.734375 -7.421875 C 6.304688 -7.660156 5.84375 -7.78125 5.34375 -7.78125 C 4.851562 -7.78125 4.394531 -7.660156 3.96875 -7.421875 C 3.550781 -7.191406 3.21875 -6.84375 2.96875 -6.375 C 2.71875 -5.90625 2.59375 -5.332031 2.59375 -4.65625 C 2.59375 -3.65625 2.847656 -2.878906 3.359375 -2.328125 C 3.878906 -1.785156 4.523438 -1.515625 5.296875 -1.515625 Z M 5.296875 -1.515625 "/></g></g></g><g fill="#ffffff" fill-opacity="1"><g transform="translate(93.152665, 311.931249)"><g><path d="M 5.015625 -9.453125 C 5.734375 -9.453125 6.367188 -9.304688 6.921875 -9.015625 C 7.484375 -8.734375 7.921875 -8.378906 8.234375 -7.953125 L 8.234375 -9.296875 L 10.171875 -9.296875 L 10.171875 0.15625 C 10.171875 1.007812 9.988281 1.769531 9.625 2.4375 C 9.269531 3.101562 8.75 3.628906 8.0625 4.015625 C 7.382812 4.398438 6.578125 4.59375 5.640625 4.59375 C 4.378906 4.59375 3.332031 4.296875 2.5 3.703125 C 1.664062 3.109375 1.191406 2.304688 1.078125 1.296875 L 2.984375 1.296875 C 3.128906 1.785156 3.441406 2.175781 3.921875 2.46875 C 4.398438 2.769531 4.972656 2.921875 5.640625 2.921875 C 6.410156 2.921875 7.035156 2.679688 7.515625 2.203125 C 7.992188 1.734375 8.234375 1.050781 8.234375 0.15625 L 8.234375 -1.40625 C 7.910156 -0.96875 7.46875 -0.597656 6.90625 -0.296875 C 6.351562 0.00390625 5.722656 0.15625 5.015625 0.15625 C 4.203125 0.15625 3.457031 -0.046875 2.78125 -0.453125 C 2.113281 -0.867188 1.585938 -1.445312 1.203125 -2.1875 C 0.816406 -2.925781 0.625 -3.757812 0.625 -4.6875 C 0.625 -5.625 0.816406 -6.453125 1.203125 -7.171875 C 1.585938 -7.890625 2.113281 -8.445312 2.78125 -8.84375 C 3.457031 -9.25 4.203125 -9.453125 5.015625 -9.453125 Z M 8.234375 -4.65625 C 8.234375 -5.300781 8.097656 -5.859375 7.828125 -6.328125 C 7.566406 -6.796875 7.222656 -7.15625 6.796875 -7.40625 C 6.367188 -7.65625 5.910156 -7.78125 5.421875 -7.78125 C 4.921875 -7.78125 4.457031 -7.65625 4.03125 -7.40625 C 3.601562 -7.164062 3.253906 -6.8125 2.984375 -6.34375 C 2.722656 -5.882812 2.59375 -5.332031 2.59375 -4.6875 C 2.59375 -4.050781 2.722656 -3.488281 2.984375 -3 C 3.253906 -2.519531 3.601562 -2.148438 4.03125 -1.890625 C 4.46875 -1.640625 4.929688 -1.515625 5.421875 -1.515625 C 5.910156 -1.515625 6.367188 -1.640625 6.796875 -1.890625 C 7.222656 -2.140625 7.566406 -2.503906 7.828125 -2.984375 C 8.097656 -3.460938 8.234375 -4.019531 8.234375 -4.65625 Z M 8.265625 -12.421875 C 8.265625 -11.710938 8.035156 -11.144531 7.578125 -10.71875 C 7.117188 -10.289062 6.5 -10.078125 5.71875 -10.078125 C 4.925781 -10.078125 4.304688 -10.289062 3.859375 -10.71875 C 3.410156 -11.15625 3.1875 -11.726562 3.1875 -12.4375 L 3.1875 -12.796875 L 4.28125 -12.796875 C 4.28125 -12.390625 4.382812 -12.082031 4.59375 -11.875 C 4.8125 -11.675781 5.1875 -11.578125 5.71875 -11.578125 C 6.25 -11.578125 6.617188 -11.675781 6.828125 -11.875 C 7.046875 -12.082031 7.15625 -12.390625 7.15625 -12.796875 L 8.265625 -12.796875 Z M 8.265625 -12.421875 "/></g></g></g><g fill="#ffffff" fill-opacity="1"><g transform="translate(104.591864, 311.931249)"><g><path d="M 9.6875 -9.296875 L 9.6875 0 L 7.765625 0 L 7.765625 -1.09375 C 7.460938 -0.707031 7.066406 -0.40625 6.578125 -0.1875 C 6.085938 0.03125 5.566406 0.140625 5.015625 0.140625 C 4.285156 0.140625 3.628906 -0.0078125 3.046875 -0.3125 C 2.460938 -0.625 2.003906 -1.078125 1.671875 -1.671875 C 1.347656 -2.265625 1.1875 -2.984375 1.1875 -3.828125 L 1.1875 -9.296875 L 3.09375 -9.296875 L 3.09375 -4.125 C 3.09375 -3.289062 3.300781 -2.648438 3.71875 -2.203125 C 4.132812 -1.753906 4.703125 -1.53125 5.421875 -1.53125 C 6.140625 -1.53125 6.707031 -1.753906 7.125 -2.203125 C 7.550781 -2.648438 7.765625 -3.289062 7.765625 -4.125 L 7.765625 -9.296875 Z M 9.6875 -9.296875 "/></g></g></g><g fill="#ffffff" fill-opacity="1"><g transform="translate(115.54178, 311.931249)"><g><path d="M 12.515625 -9.453125 C 13.253906 -9.453125 13.910156 -9.296875 14.484375 -8.984375 C 15.066406 -8.679688 15.523438 -8.234375 15.859375 -7.640625 C 16.191406 -7.046875 16.359375 -6.328125 16.359375 -5.484375 L 16.359375 0 L 14.4375 0 L 14.4375 -5.203125 C 14.4375 -6.035156 14.226562 -6.671875 13.8125 -7.109375 C 13.40625 -7.554688 12.835938 -7.78125 12.109375 -7.78125 C 11.390625 -7.78125 10.816406 -7.554688 10.390625 -7.109375 C 9.972656 -6.671875 9.765625 -6.035156 9.765625 -5.203125 L 9.765625 0 L 7.859375 0 L 7.859375 -5.203125 C 7.859375 -6.035156 7.648438 -6.671875 7.234375 -7.109375 C 6.816406 -7.554688 6.25 -7.78125 5.53125 -7.78125 C 4.8125 -7.78125 4.238281 -7.554688 3.8125 -7.109375 C 3.394531 -6.671875 3.1875 -6.035156 3.1875 -5.203125 L 3.1875 0 L 1.265625 0 L 1.265625 -9.296875 L 3.1875 -9.296875 L 3.1875 -8.234375 C 3.5 -8.617188 3.894531 -8.914062 4.375 -9.125 C 4.863281 -9.34375 5.382812 -9.453125 5.9375 -9.453125 C 6.675781 -9.453125 7.335938 -9.289062 7.921875 -8.96875 C 8.515625 -8.65625 8.96875 -8.203125 9.28125 -7.609375 C 9.5625 -8.171875 10 -8.617188 10.59375 -8.953125 C 11.1875 -9.285156 11.828125 -9.453125 12.515625 -9.453125 Z M 12.515625 -9.453125 "/></g></g></g><g fill="#ffffff" fill-opacity="1"><g transform="translate(133.071761, 311.931249)"><g/></g></g><g fill="#ffffff" fill-opacity="1"><g transform="translate(137.458478, 311.931249)"><g><path d="M 3.171875 -11.734375 L 3.171875 -4.25 C 3.171875 -3.363281 3.40625 -2.691406 3.875 -2.234375 C 4.34375 -1.785156 4.992188 -1.5625 5.828125 -1.5625 C 6.671875 -1.5625 7.320312 -1.785156 7.78125 -2.234375 C 8.25 -2.691406 8.484375 -3.363281 8.484375 -4.25 L 8.484375 -11.734375 L 10.40625 -11.734375 L 10.40625 -4.28125 C 10.40625 -3.332031 10.195312 -2.523438 9.78125 -1.859375 C 9.363281 -1.191406 8.804688 -0.691406 8.109375 -0.359375 C 7.421875 -0.0351562 6.65625 0.125 5.8125 0.125 C 4.96875 0.125 4.195312 -0.0351562 3.5 -0.359375 C 2.8125 -0.691406 2.265625 -1.191406 1.859375 -1.859375 C 1.453125 -2.523438 1.25 -3.332031 1.25 -4.28125 L 1.25 -11.734375 Z M 3.171875 -11.734375 "/></g></g></g><g fill="#ffffff" fill-opacity="1"><g transform="translate(149.100144, 311.931249)"><g><path d="M 2.96875 -1.5625 L 7.1875 -1.5625 L 7.1875 0 L 0.75 0 L 0.75 -1.5625 L 4.984375 -7.734375 L 0.75 -7.734375 L 0.75 -9.296875 L 7.1875 -9.296875 L 7.1875 -7.734375 Z M 2.96875 -1.5625 "/></g></g></g><g fill="#ffffff" fill-opacity="1"><g transform="translate(157.046843, 311.931249)"><g><path d="M 12.515625 -9.453125 C 13.253906 -9.453125 13.910156 -9.296875 14.484375 -8.984375 C 15.066406 -8.679688 15.523438 -8.234375 15.859375 -7.640625 C 16.191406 -7.046875 16.359375 -6.328125 16.359375 -5.484375 L 16.359375 0 L 14.4375 0 L 14.4375 -5.203125 C 14.4375 -6.035156 14.226562 -6.671875 13.8125 -7.109375 C 13.40625 -7.554688 12.835938 -7.78125 12.109375 -7.78125 C 11.390625 -7.78125 10.816406 -7.554688 10.390625 -7.109375 C 9.972656 -6.671875 9.765625 -6.035156 9.765625 -5.203125 L 9.765625 0 L 7.859375 0 L 7.859375 -5.203125 C 7.859375 -6.035156 7.648438 -6.671875 7.234375 -7.109375 C 6.816406 -7.554688 6.25 -7.78125 5.53125 -7.78125 C 4.8125 -7.78125 4.238281 -7.554688 3.8125 -7.109375 C 3.394531 -6.671875 3.1875 -6.035156 3.1875 -5.203125 L 3.1875 0 L 1.265625 0 L 1.265625 -9.296875 L 3.1875 -9.296875 L 3.1875 -8.234375 C 3.5 -8.617188 3.894531 -8.914062 4.375 -9.125 C 4.863281 -9.34375 5.382812 -9.453125 5.9375 -9.453125 C 6.675781 -9.453125 7.335938 -9.289062 7.921875 -8.96875 C 8.515625 -8.65625 8.96875 -8.203125 9.28125 -7.609375 C 9.5625 -8.171875 10 -8.617188 10.59375 -8.953125 C 11.1875 -9.285156 11.828125 -9.453125 12.515625 -9.453125 Z M 12.515625 -9.453125 "/></g></g></g><g fill="#ffffff" fill-opacity="1"><g transform="translate(174.576825, 311.931249)"><g><path d="M 0.625 -4.6875 C 0.625 -5.625 0.816406 -6.453125 1.203125 -7.171875 C 1.585938 -7.890625 2.113281 -8.445312 2.78125 -8.84375 C 3.457031 -9.25 4.203125 -9.453125 5.015625 -9.453125 C 5.742188 -9.453125 6.378906 -9.304688 6.921875 -9.015625 C 7.472656 -8.734375 7.910156 -8.378906 8.234375 -7.953125 L 8.234375 -9.296875 L 10.171875 -9.296875 L 10.171875 0 L 8.234375 0 L 8.234375 -1.390625 C 7.910156 -0.941406 7.46875 -0.570312 6.90625 -0.28125 C 6.34375 0.0078125 5.703125 0.15625 4.984375 0.15625 C 4.179688 0.15625 3.445312 -0.046875 2.78125 -0.453125 C 2.113281 -0.867188 1.585938 -1.445312 1.203125 -2.1875 C 0.816406 -2.925781 0.625 -3.757812 0.625 -4.6875 Z M 8.234375 -4.65625 C 8.234375 -5.300781 8.097656 -5.859375 7.828125 -6.328125 C 7.566406 -6.796875 7.222656 -7.15625 6.796875 -7.40625 C 6.367188 -7.65625 5.910156 -7.78125 5.421875 -7.78125 C 4.921875 -7.78125 4.457031 -7.65625 4.03125 -7.40625 C 3.601562 -7.164062 3.253906 -6.8125 2.984375 -6.34375 C 2.722656 -5.882812 2.59375 -5.332031 2.59375 -4.6875 C 2.59375 -4.050781 2.722656 -3.488281 2.984375 -3 C 3.253906 -2.519531 3.601562 -2.148438 4.03125 -1.890625 C 4.46875 -1.640625 4.929688 -1.515625 5.421875 -1.515625 C 5.910156 -1.515625 6.367188 -1.640625 6.796875 -1.890625 C 7.222656 -2.140625 7.566406 -2.503906 7.828125 -2.984375 C 8.097656 -3.460938 8.234375 -4.019531 8.234375 -4.65625 Z M 8.234375 -4.65625 "/></g></g></g><g fill="#ffffff" fill-opacity="1"><g transform="translate(186.016024, 311.931249)"><g><path d="M 5.953125 -9.453125 C 6.679688 -9.453125 7.335938 -9.296875 7.921875 -8.984375 C 8.503906 -8.679688 8.957031 -8.234375 9.28125 -7.640625 C 9.601562 -7.046875 9.765625 -6.328125 9.765625 -5.484375 L 9.765625 0 L 7.859375 0 L 7.859375 -5.203125 C 7.859375 -6.035156 7.648438 -6.671875 7.234375 -7.109375 C 6.816406 -7.554688 6.25 -7.78125 5.53125 -7.78125 C 4.8125 -7.78125 4.238281 -7.554688 3.8125 -7.109375 C 3.394531 -6.671875 3.1875 -6.035156 3.1875 -5.203125 L 3.1875 0 L 1.265625 0 L 1.265625 -9.296875 L 3.1875 -9.296875 L 3.1875 -8.234375 C 3.5 -8.617188 3.898438 -8.914062 4.390625 -9.125 C 4.878906 -9.34375 5.398438 -9.453125 5.953125 -9.453125 Z M 5.953125 -9.453125 "/></g></g></g><g fill="#ffffff" fill-opacity="1"><g transform="translate(196.965939, 311.931249)"><g><path d="M 3.1875 -9.296875 L 3.1875 0 L 1.265625 0 L 1.265625 -9.296875 Z M 3.1875 -9.296875 "/></g></g></g><g clip-path="url(#24ce48ad5e)"><g clip-path="url(#825dcc4600)"><g clip-path="url(#442ce60f43)"><path fill="#905bdf" d="M 299.113281 116.242188 C 295.644531 112.984375 286.863281 116.753906 281.273438 122.699219 C 277.003906 127.242188 276.433594 131.144531 277.945312 134.1875 L 276.402344 136.0625 C 275.640625 136.988281 275.667969 138.304688 276.402344 139.191406 C 275.839844 140.058594 275.320312 140.929688 274.851562 141.785156 C 273.589844 144.121094 272.800781 146.136719 272.363281 148.132812 C 272.230469 148.75 272.144531 149.328125 272.097656 149.902344 L 272.0625 150.332031 C 272.054688 150.421875 272.046875 150.511719 272.03125 150.613281 C 272.003906 150.835938 271.964844 151.0625 271.917969 151.289062 C 271.738281 152.152344 271.429688 153.0625 271.007812 153.992188 C 270.1875 155.773438 269.03125 157.445312 267.660156 158.828125 C 266.941406 159.554688 266.179688 160.179688 265.398438 160.679688 C 264.539062 161.230469 263.667969 161.628906 262.808594 161.859375 L 262.382812 161.96875 C 262.253906 162.007812 262.121094 162.042969 261.996094 162.085938 C 261.722656 162.167969 261.449219 162.265625 261.1875 162.371094 C 260.679688 162.566406 260.171875 162.796875 259.640625 163.082031 C 258.703125 163.578125 257.765625 164.195312 256.851562 164.925781 C 255.105469 166.328125 253.628906 167.980469 252.460938 169.832031 C 251.171875 171.878906 250.410156 173.957031 250.199219 176.007812 C 250.171875 176.28125 250.367188 176.53125 250.644531 176.566406 C 250.703125 176.574219 250.765625 176.574219 250.820312 176.558594 C 251.023438 176.515625 251.183594 176.351562 251.21875 176.140625 C 251.507812 174.273438 252.304688 172.40625 253.585938 170.582031 C 254.753906 168.925781 256.199219 167.476562 257.871094 166.269531 C 259.570312 165.054688 261.273438 164.253906 262.933594 163.886719 C 263.042969 163.863281 263.148438 163.84375 263.269531 163.820312 L 263.402344 163.792969 C 264.441406 163.5625 265.492188 163.152344 266.53125 162.570312 C 267.484375 162.035156 268.417969 161.359375 269.308594 160.566406 C 270.996094 159.046875 272.402344 157.25 273.492188 155.222656 C 274.078125 154.117188 274.503906 153.058594 274.796875 151.980469 C 274.875 151.6875 274.945312 151.390625 275 151.101562 C 275.03125 150.953125 275.054688 150.792969 275.082031 150.625 L 275.136719 150.238281 C 275.195312 149.808594 275.292969 149.351562 275.425781 148.878906 C 275.882812 147.242188 276.691406 145.5 277.898438 143.554688 C 278.328125 142.871094 278.796875 142.175781 279.304688 141.480469 C 280.269531 141.863281 281.414062 141.601562 282.109375 140.753906 L 283.636719 138.898438 C 286.5625 139.636719 290.035156 138.550781 293.835938 134.503906 C 299.425781 128.558594 302.582031 119.503906 299.113281 116.242188 Z M 299.113281 116.242188 " fill-opacity="1" fill-rule="nonzero"/></g></g></g><g clip-path="url(#c8bffce47c)"><g clip-path="url(#a7c607d27f)"><g clip-path="url(#f9fef49236)"><path fill="#cb6ce6" d="M 295.957031 119.992188 C 292.953125 117.167969 285.347656 120.433594 280.507812 125.585938 C 276.808594 129.519531 276.3125 132.898438 277.621094 135.535156 L 276.285156 137.160156 C 275.628906 137.960938 275.652344 139.101562 276.289062 139.871094 C 275.800781 140.621094 275.347656 141.375 274.945312 142.117188 C 273.851562 144.140625 273.164062 145.886719 272.789062 147.613281 C 272.675781 148.148438 272.597656 148.652344 272.558594 149.144531 L 272.527344 149.519531 C 272.519531 149.597656 272.511719 149.675781 272.5 149.765625 C 272.476562 149.957031 272.441406 150.152344 272.402344 150.347656 C 272.246094 151.097656 271.980469 151.886719 271.613281 152.691406 C 270.902344 154.230469 269.898438 155.679688 268.714844 156.878906 C 268.089844 157.507812 267.429688 158.046875 266.753906 158.484375 C 266.011719 158.960938 265.253906 159.304688 264.511719 159.503906 L 264.144531 159.597656 C 264.03125 159.632812 263.914062 159.664062 263.808594 159.699219 C 263.570312 159.773438 263.332031 159.855469 263.105469 159.945312 C 262.667969 160.117188 262.230469 160.316406 261.769531 160.5625 C 260.953125 160.992188 260.144531 161.527344 259.351562 162.160156 C 257.839844 163.375 256.558594 164.804688 255.546875 166.410156 C 254.433594 168.183594 253.773438 169.984375 253.589844 171.757812 C 253.566406 171.996094 253.734375 172.214844 253.976562 172.246094 C 254.027344 172.25 254.078125 172.25 254.128906 172.238281 C 254.300781 172.199219 254.441406 172.058594 254.472656 171.871094 C 254.722656 170.257812 255.414062 168.640625 256.523438 167.058594 C 257.535156 165.625 258.785156 164.367188 260.234375 163.324219 C 261.707031 162.269531 263.179688 161.578125 264.621094 161.261719 C 264.714844 161.242188 264.808594 161.222656 264.910156 161.203125 L 265.023438 161.175781 C 265.925781 160.980469 266.835938 160.625 267.734375 160.121094 C 268.5625 159.65625 269.371094 159.074219 270.140625 158.382812 C 271.605469 157.070312 272.824219 155.511719 273.765625 153.757812 C 274.273438 152.800781 274.644531 151.878906 274.898438 150.949219 C 274.964844 150.691406 275.023438 150.433594 275.074219 150.1875 C 275.097656 150.058594 275.121094 149.917969 275.140625 149.773438 L 275.1875 149.4375 C 275.242188 149.066406 275.328125 148.667969 275.4375 148.257812 C 275.835938 146.84375 276.535156 145.335938 277.582031 143.648438 C 277.953125 143.054688 278.363281 142.453125 278.800781 141.851562 C 279.636719 142.183594 280.625 141.957031 281.230469 141.222656 L 282.550781 139.613281 C 285.085938 140.257812 288.09375 139.3125 291.386719 135.808594 C 296.226562 130.660156 298.960938 122.816406 295.957031 119.992188 Z M 295.957031 119.992188 " fill-opacity="1" fill-rule="nonzero"/></g></g></g></svg>